<svg width="154" height="358" viewBox="0 0 154 358" fill="none" xmlns="http://www.w3.org/2000/svg">
<path d="M0.250001 358H153.25V313H50.25V276.25C50.25 248.25 51.25 238.5 74 226L104.75 208.25C141.25 189.75 152.75 166.75 152.75 128V62.25C152.75 22 126.25 0.249972 78.25 0.249972H77.5C29.25 0.249972 2.25 24 2.25 67.5V131H51.25V67C51.25 49.75 60.25 42 76.75 42H77.5C93.25 42 103 48 103 65V125.75C103 150.75 98.5 161 78.25 173.25L49 191C7 210.75 0.250001 235 0.250001 289.75V358Z" fill="#294D9B"/>
</svg>
