<svg width="160" height="364" viewBox="0 0 160 364" fill="none" xmlns="http://www.w3.org/2000/svg">
<path d="M79 363.25H79.5C128.75 363.25 159.25 341.25 159.25 295.75V228.5C159.25 200.5 149.25 183.25 126.25 175.5C142.5 167.75 153 151.5 153 124.25V61.75C153 19.75 131 0.249972 80.75 0.249972H80.25C29.75 0.249972 6.75 23.5 6.75 68V130.5H55.75V65C55.75 48.75 63.5 41.25 79.75 41.25H80.25C95.75 41.25 103.5 47.25 103.5 61.75V131.25C103.5 149.25 95 156.75 76.5 156.75H56V200.25H78C100.5 200.25 109.5 207.25 109.5 226.25V298.25C109.5 316.25 96.5 321.75 80 321.75H79.5C62.75 321.75 50 313.5 50 296.5V230.75H0.5V295C0.5 339 29.75 363.25 79 363.25Z" fill="#294D9B"/>
</svg>
